<?xml version="1.0" encoding="UTF-8"?><svg id="svg1323" xmlns="http://www.w3.org/2000/svg" viewBox="0 0 29.73 25.36"><defs><style>.cls-1{fill-rule:evenodd;}.cls-1,.cls-2{fill:#c51824;}</style></defs><g id="layer1"><path class="cls-1" d="M14.6,3.61h-1.83v3.04c-.24-.18-.74-.58-1.78-.58-1.99,0-3.3,1.48-3.3,3.49s1.38,3.34,3.16,3.34c1.14,0,1.72-.51,1.92-.69v.49h1.83V3.61h0ZM12.76,9.36c0,.81-.01,1.48-.85,1.84-.21.09-.43.13-.65.13-.82,0-1.68-.61-1.68-1.83,0-.95.51-1.86,1.69-1.86.88,0,1.37.53,1.46,1.1.03.18.03.34.03.62h0ZM17.04,12.35c.34.23.83.56,1.72.56,1.95,0,3.33-1.37,3.33-3.51,0-1.92-1.31-3.33-3.17-3.33-1.01,0-1.55.39-1.88.63v-.44h-1.86v8.73h1.86v-2.65h0ZM20.15,9.45c.03,1.12-.68,1.87-1.66,1.87-1.46,0-1.46-1.55-1.46-1.93,0-.33,0-1.78,1.48-1.78,1.02,0,1.64.8,1.65,1.84h0Z"/><path class="cls-2" d="M14.7,0h0c2.69,0,5.13,1.04,6.89,2.72,1.77,1.69,2.87,4.01,2.87,6.58h0c0,2.56-1.1,4.89-2.87,6.58-1.77,1.68-4.21,2.72-6.89,2.72h0c-2.68,0-5.12-1.04-6.89-2.72-1.77-1.68-2.87-4.01-2.87-6.57h0c0-2.57,1.1-4.89,2.87-6.58C9.58,1.04,12.02,0,14.7,0h0ZM14.7.77h0c-2.48,0-4.73.96-6.36,2.51-1.62,1.54-2.63,3.67-2.63,6.02h0c0,2.35,1.01,4.48,2.63,6.02,1.63,1.55,3.88,2.51,6.36,2.51h0c2.48,0,4.73-.96,6.36-2.51,1.62-1.54,2.63-3.67,2.63-6.02h0c0-2.35-1.01-4.48-2.63-6.02-1.63-1.55-3.88-2.51-6.36-2.51h0Z"/><path class="cls-1" d="M2.72,18.96v1.83c-.24-.32-.63-.56-1.17-.56-1.02,0-1.55.81-1.55,1.94s.56,1.93,1.59,1.93c.57,0,.95-.27,1.14-.53v.45s.64,0,.64,0v-5.07h-.65ZM2.72,22.17c0,.88-.38,1.39-1.05,1.39-.15,0-.56-.02-.81-.46-.14-.25-.19-.58-.19-.91s.04-.7.21-.98c.12-.18.35-.42.78-.42.36,0,.66.17.84.44.19.29.22.67.22.95h0ZM6.73,20.3v1.76c0,.46,0,.79-.23,1.09-.17.24-.46.38-.77.38s-.5-.17-.57-.28c-.12-.18-.12-.35-.13-.72v-2.23h-.67v2.18c0,.7.04,1.01.38,1.32.19.17.49.3.9.3.6,0,.96-.28,1.13-.58v.5h.63v-3.73h-.67ZM8.39,20.31v3.71h.65v-1.25c0-.81,0-1.16.24-1.47.13-.17.42-.38.82-.38.03,0,.12,0,.21.01v-.63c-.07-.01-.17-.03-.29-.03-.47,0-.82.22-1.02.65v-.63h-.62ZM13.31,20.3v1.76c0,.46,0,.79-.23,1.09-.17.24-.46.38-.77.38s-.5-.17-.57-.28c-.12-.18-.12-.35-.13-.72v-2.23h-.67v2.18c0,.7.04,1.01.38,1.32.19.17.49.3.9.3.6,0,.96-.28,1.13-.58v.5h.63v-3.73h-.67ZM15.99,20.35h-1.13v5.01h1.19v-1.66c.12.11.42.41.98.41.81,0,1.47-.66,1.47-1.95,0-.66-.18-1.1-.39-1.36-.24-.32-.63-.54-1.09-.54-.58,0-.91.31-1.03.42v-.33h0ZM17.31,22.16c0,.19,0,.58-.17.85-.05.06-.18.24-.47.24-.5,0-.63-.51-.63-1.03s.14-1.06.63-1.06c.61,0,.63.78.64,1h0ZM21.42,20.35c-.11-.04-.22-.06-.38-.06-.62,0-.88.4-.97.55v-.49h-1.02v3.68h1.1v-2.41c.14-.14.4-.3.83-.3.23,0,.36.04.44.06v-1.03h0ZM21.74,19.03v.93h1.19v-.93h-1.19ZM21.74,20.35v3.68h1.19v-3.68h-1.19ZM24.86,20.35h-1.17v3.68h1.19v-1.92c0-.24,0-.52.23-.67.09-.06.22-.09.33-.09.16,0,.34.07.42.25.06.13.07.29.08.57v1.87h1.18v-2.38c0-.35-.01-.69-.27-.98-.26-.29-.62-.37-.92-.37-.62,0-.91.32-1.07.5v-.44h0ZM29.17,21.13h.56v-.65h-.57v-1.28h-1.18v1.28h-.46v.65h.46v1.89c0,.61,0,1.07,1.08,1.07.26,0,.44-.03.66-.06v-.86c-.06.01-.12.03-.21.03-.32,0-.34-.21-.35-.39v-1.68h0Z"/></g></svg>